<svg viewBox="0 0 200 160" xmlns="http://www.w3.org/2000/svg" role="img" aria-label="Let sleeping dogs lie">
<ellipse cx="108" cy="148" rx="76" ry="9" fill="rgba(0,0,0,.25)"/>
<ellipse cx="108" cy="116" rx="74" ry="30" fill="#D9A973"/>
<ellipse cx="44" cy="112" rx="26" ry="24" fill="#D9A973"/>
<path d="M22 104c-6-10-4-22 4-26 4 10 4 18 6 22z" fill="#C28E5A"/>
<ellipse cx="40" cy="120" rx="9" ry="6" fill="#5A3A28"/>
<path d="M30 110c4 3 9 3 12 0" stroke="#5A3A28" stroke-width="2.4" fill="none" stroke-linecap="round"/>
<path d="M70 124c5 4 12 4 17 0M100 126c5 4 12 4 17 0M132 124c5 4 12 4 17 0" stroke="#C28E5A" stroke-width="2.6" fill="none" stroke-linecap="round"/>
<path d="M150 48c8 0 8 9 0 9M158 62c10 0 10 11 0 11" fill="none" stroke="#C9B6E0" stroke-width="3.2" stroke-linecap="round"/>
<ellipse cx="170" cy="98" rx="15" ry="17" fill="#F2C9A0"/>
<path d="M155 94c0-10 7-18 15-18s15 8 15 18z" fill="#5A8FCF"/>
<circle cx="164" cy="96" r="2.6" fill="#5A3A28"/><circle cx="176" cy="96" r="2.6" fill="#5A3A28"/>
<circle cx="171" cy="104" r="2.4" fill="#E07A5F"/>
<path d="M170 80c-3-4 2-7-1-11" fill="none" stroke="#F2C9A0" stroke-width="5" stroke-linecap="round"/>
<path d="M156 100c-8 2-14-2-14-2" fill="none" stroke="#F2C9A0" stroke-width="6" stroke-linecap="round"/>
<path d="M163 118l-3 12M177 118l3 12" stroke="#5A8FCF" stroke-width="6" stroke-linecap="round"/>
</svg>
