<svg viewBox="0 0 200 160" xmlns="http://www.w3.org/2000/svg" role="img" aria-label="Helicopter parents">
<ellipse cx="100" cy="150" rx="46" ry="8" fill="rgba(0,0,0,.25)"/>
<path d="M58 138c0-12 84-12 84 0 0 6-19 9-42 9s-42-3-42-9z" fill="#F2D6A6"/>
<rect x="58" y="120" width="84" height="20" rx="5" fill="#C99A5A"/>
<circle cx="100" cy="120" r="12" fill="#F6C9A8"/>
<rect x="90" y="130" width="20" height="14" rx="6" fill="#7BC47F"/>
<circle cx="96" cy="119" r="1.8" fill="#33240F"/><circle cx="104" cy="119" r="1.8" fill="#33240F"/>
<path d="M95 123c3 2 7 2 10 0" stroke="#33240F" stroke-width="1.6" fill="none" stroke-linecap="round"/>
<ellipse cx="48" cy="64" rx="14" ry="16" fill="#5B8BD0"/>
<circle cx="48" cy="52" r="11" fill="#F6C9A8"/>
<rect x="22" y="40" width="52" height="4" rx="2" fill="#3A4258"/>
<rect x="46" y="30" width="4" height="12" rx="2" fill="#3A4258"/>
<circle cx="44" cy="52" r="2" fill="#33240F"/><circle cx="52" cy="52" r="2" fill="#33240F"/>
<path d="M43 57c3 2 7 2 10 0" stroke="#33240F" stroke-width="1.8" fill="none" stroke-linecap="round"/>
<ellipse cx="152" cy="70" rx="14" ry="16" fill="#E58A5E"/>
<circle cx="152" cy="58" r="11" fill="#F4BE9A"/>
<rect x="126" y="46" width="52" height="4" rx="2" fill="#3A4258"/>
<rect x="150" y="36" width="4" height="12" rx="2" fill="#3A4258"/>
<circle cx="148" cy="58" r="2" fill="#33240F"/><circle cx="156" cy="58" r="2" fill="#33240F"/>
<path d="M147 63c3 2 7 2 10 0" stroke="#33240F" stroke-width="1.8" fill="none" stroke-linecap="round"/>
</svg>
