<svg viewBox="0 0 200 160" xmlns="http://www.w3.org/2000/svg" role="img" aria-label="A party animal">
<ellipse cx="98" cy="152" rx="40" ry="7" fill="rgba(0,0,0,.25)"/>
<circle cx="100" cy="22" r="14" fill="#C0C6D6"/>
<path d="M86 22a14 14 0 0 0 28 0M88 14l24 16M112 14l-24 16M100 8v28" stroke="#8A90A4" stroke-width="2" opacity=".7"/>
<path d="M70 150c-4-30 8-50 30-50s34 20 30 50z" fill="#9B6BC9"/>
<ellipse cx="100" cy="78" rx="26" ry="26" fill="#B58BE0"/>
<path d="M80 60c-8-10-6-20 2-22 4 8 4 14 4 20zM120 60c8-10 6-20-2-22-4 8-4 14-4 20z" fill="#B58BE0"/>
<path d="M82 58c-5-7-4-13 0-15 3 5 3 10 2 15zM118 58c5-7 4-13 0-15-3 5-3 10-2 15z" fill="#8A5AB0"/>
<rect x="78" y="72" width="44" height="14" rx="7" fill="#2A2438"/>
<circle cx="89" cy="79" r="8" fill="#4A4060"/><circle cx="111" cy="79" r="8" fill="#4A4060"/>
<rect x="97" y="77" width="6" height="4" fill="#2A2438"/>
<path d="M88 96c8 6 16 6 24 0" stroke="#5A3A7A" stroke-width="3.4" fill="none" stroke-linecap="round"/>
<ellipse cx="100" cy="92" rx="4" ry="3" fill="#C9436F"/>
<path d="M70 100c-10 4-16 12-14 22M130 100c10 4 16 12 14 22" stroke="#9B6BC9" stroke-width="9" fill="none" stroke-linecap="round"/>
<circle cx="46" cy="60" r="4" fill="#F6C744"/><circle cx="156" cy="58" r="4" fill="#E8638E"/>
<rect x="40" y="100" width="8" height="8" rx="2" fill="#6FB6D6" transform="rotate(20 44 104)"/>
<rect x="154" y="100" width="8" height="8" rx="2" fill="#F6C744" transform="rotate(-20 158 104)"/>
</svg>
