<svg viewBox="0 0 200 160" xmlns="http://www.w3.org/2000/svg" role="img" aria-label="The black sheep">
<ellipse cx="100" cy="150" rx="58" ry="8" fill="rgba(0,0,0,.25)"/>
<g fill="#F1EFE8">
<ellipse cx="38" cy="70" rx="16" ry="14"/><ellipse cx="38" cy="86" rx="14" ry="13"/>
<ellipse cx="74" cy="74" rx="16" ry="14"/><ellipse cx="74" cy="90" rx="14" ry="13"/>
<ellipse cx="150" cy="72" rx="16" ry="14"/><ellipse cx="150" cy="88" rx="14" ry="13"/>
</g>
<g fill="#C9C3B6">
<circle cx="38" cy="64" r="9"/><circle cx="74" cy="68" r="9"/><circle cx="150" cy="66" r="9"/>
<circle cx="34" cy="64" r="1.6" fill="#16243A"/><circle cx="42" cy="64" r="1.6" fill="#16243A"/>
<circle cx="70" cy="68" r="1.6" fill="#16243A"/><circle cx="78" cy="68" r="1.6" fill="#16243A"/>
<circle cx="146" cy="66" r="1.6" fill="#16243A"/><circle cx="154" cy="66" r="1.6" fill="#16243A"/>
</g>
<g fill="#2E3340">
<ellipse cx="108" cy="98" rx="22" ry="19"/><ellipse cx="108" cy="118" rx="19" ry="17"/>
</g>
<circle cx="108" cy="86" r="12" fill="#3A404E"/>
<circle cx="103" cy="85" r="5" fill="#fff"/><circle cx="113" cy="85" r="5" fill="#fff"/>
<circle cx="103" cy="86" r="2.4" fill="#16243A"/><circle cx="113" cy="86" r="2.4" fill="#16243A"/>
<path d="M101 95c4 3 10 3 14 0" stroke="#FFD23F" stroke-width="3" fill="none" stroke-linecap="round"/>
</svg>
