<svg viewBox="0 0 200 160" xmlns="http://www.w3.org/2000/svg" role="img" aria-label="Трудолюбивая пчела">
<ellipse cx="104" cy="144" rx="44" ry="8" fill="rgba(0,0,0,.25)"/>
<path d="M30 96c10-6 22-6 30 0M26 116c10-6 22-6 30 0" stroke="#7E89AD" stroke-width="5" stroke-linecap="round" fill="none" opacity=".7"/>
<ellipse cx="86" cy="62" rx="22" ry="14" fill="#CFE8FF" opacity=".9" transform="rotate(-28 86 62)"/>
<ellipse cx="124" cy="58" rx="22" ry="14" fill="#CFE8FF" opacity=".9" transform="rotate(22 124 58)"/>
<ellipse cx="106" cy="100" rx="40" ry="30" fill="#FFC93C"/>
<path d="M92 72a40 30 0 0 0 0 56M120 74a40 30 0 0 1 0 52" stroke="#2B2118" stroke-width="11" fill="none" stroke-linecap="round"/>
<circle cx="146" cy="92" r="17" fill="#2B2118"/>
<circle cx="152" cy="88" r="3" fill="#fff"/>
<path d="M158 78l8-8M166 86l10-4" stroke="#2B2118" stroke-width="4" stroke-linecap="round"/>
<path d="M64 102l-12 2" stroke="#2B2118" stroke-width="5" stroke-linecap="round"/>
</svg>
