<svg viewBox="0 0 200 160" xmlns="http://www.w3.org/2000/svg" role="img" aria-label="Птичка с секретом">
<ellipse cx="92" cy="144" rx="48" ry="8" fill="rgba(0,0,0,.25)"/>
<path d="M40 132h104" stroke="#6B7BA8" stroke-width="6" stroke-linecap="round"/>
<ellipse cx="92" cy="100" rx="34" ry="30" fill="#5BB7F0"/>
<circle cx="104" cy="78" r="20" fill="#5BB7F0"/>
<path d="M58 104c-12 2-20 8-24 16 10 2 20 0 28-6z" fill="#3E92CC"/>
<circle cx="110" cy="74" r="4.5" fill="#16243A"/>
<path d="M122 80l14 5-14 5z" fill="#F6A623"/>
<path d="M84 128l-4 10M100 128l4 10" stroke="#F6A623" stroke-width="5" stroke-linecap="round"/>
<path d="M86 96c8 6 16 6 24 0" stroke="#3E92CC" stroke-width="4" stroke-linecap="round" fill="none"/>
<rect x="128" y="34" rx="12" width="50" height="32" fill="#FFFFFF" opacity=".92"/>
<path d="M138 66l-4 10 14-8z" fill="#FFFFFF" opacity=".92"/>
<circle cx="143" cy="50" r="3.5" fill="#5B6B95"/><circle cx="154" cy="50" r="3.5" fill="#5B6B95"/><circle cx="165" cy="50" r="3.5" fill="#5B6B95"/>
</svg>
