<svg viewBox="0 0 200 160" xmlns="http://www.w3.org/2000/svg" role="img" aria-label="Build castles in the air">
<ellipse cx="60" cy="150" rx="24" ry="6" fill="rgba(0,0,0,.25)"/>
<rect x="116" y="40" width="62" height="34" fill="#C9A8E0"/>
<path d="M116 40v-12h10v8h10v-8h10v8h12v-8h10v12z" fill="#B88FD6"/>
<rect x="140" y="54" width="14" height="20" fill="#7A4FA0"/>
<path d="M116 40l-6-10 12 0zM178 40l6-10-12 0z" fill="#9A6FC0"/>
<ellipse cx="148" cy="84" rx="44" ry="16" fill="#EAF0FA"/>
<ellipse cx="120" cy="80" rx="18" ry="14" fill="#EAF0FA"/><ellipse cx="176" cy="80" rx="18" ry="14" fill="#EAF0FA"/>
<ellipse cx="60" cy="118" rx="15" ry="17" fill="#F2C9A0"/>
<path d="M45 114c0-9 7-15 15-15s15 6 15 15z" fill="#5A3A28"/>
<circle cx="58" cy="116" r="2.8" fill="#5A3A28"/><circle cx="68" cy="116" r="2.8" fill="#5A3A28"/>
<path d="M56 123c4 4 9 4 13 0" stroke="#5A3A28" stroke-width="2.4" fill="none" stroke-linecap="round"/>
<rect x="48" y="132" width="26" height="14" rx="6" fill="#FFB84D"/>
<path d="M92 70l3 8 8 3-8 3-3 8-3-8-8-3 8-3z" fill="#FFE08A"/>
</svg>
